<?xml version="1.0" encoding="UTF-8"?>
<svg version="1.1" xmlns="http://www.w3.org/2000/svg" width="512" height="512">
<path d="M0 0 C1.97974021 -0.00571671 3.95947714 -0.01268594 5.93920898 -0.02079773 C11.2700612 -0.038603 16.60074768 -0.03758443 21.9316206 -0.03185534 C26.40414091 -0.02874433 30.87663025 -0.03487723 35.34914613 -0.04089409 C45.91312931 -0.054897 56.47703156 -0.05341412 67.04101562 -0.04199219 C77.8882839 -0.0305221 88.73530461 -0.04457784 99.58254027 -0.07138866 C108.94192661 -0.09364387 118.3012358 -0.10016083 127.66064668 -0.09431225 C133.23012111 -0.09096403 138.79943703 -0.09321379 144.36888885 -0.11056328 C149.61240463 -0.12618728 154.85555781 -0.12190802 160.09906006 -0.10325813 C162.00639026 -0.09961422 163.91374826 -0.10255547 165.82105255 -0.11314392 C182.06465625 -0.19632732 198.28401784 1.60179015 213.52441406 7.59155273 C214.29479004 7.88634521 215.06516602 8.1811377 215.85888672 8.48486328 C246.85870226 20.78096846 271.3402671 45.0231643 284.89550781 75.36108398 C293.41163202 95.15634159 300.68062239 122.33452766 292.83691406 143.34155273 C287.36190478 153.69178095 278.93500647 161.27293405 268.02214491 165.46006447 C264.62675512 166.44697141 261.88213487 166.65787426 258.35368919 166.66411495 C257.07422051 166.67118054 255.79475182 166.67824613 254.47651136 166.68552583 C253.06396095 166.68327466 251.65141085 166.68082819 250.23886108 166.6782074 C248.73255543 166.68266126 247.22625211 166.6879758 245.71995223 166.69407612 C241.58368158 166.70824899 237.44748611 166.70991955 233.31119466 166.70947921 C228.84884543 166.71112807 224.38652711 166.72419594 219.92419434 166.735672 C210.16785715 166.75851657 200.41154172 166.76644213 190.65518141 166.77149844 C184.56138377 166.77475631 178.46759244 166.78127937 172.37379837 166.78849983 C155.49651734 166.80806562 138.61924218 166.82446977 121.74194908 166.82737637 C120.66203283 166.82756394 119.58211659 166.82775151 118.4694756 166.82794476 C116.28028464 166.82831101 114.09109368 166.8286747 111.90190272 166.82903587 C110.2718598 166.82931009 110.2718598 166.82931009 108.60888672 166.82958984 C106.97685031 166.82986067 106.97685031 166.82986067 105.31184347 166.83013696 C87.68605918 166.83367781 70.06039714 166.86069476 52.43465523 166.89808773 C34.33160213 166.93618544 16.22860966 166.95553395 -1.87448442 166.95583588 C-12.03588709 166.95642014 -22.19714396 166.96489221 -32.35850906 166.99383354 C-41.01199462 167.01836705 -49.66528123 167.02561705 -58.31879218 167.01058602 C-62.73149675 167.003425 -67.14380861 167.00423948 -71.55646896 167.02699661 C-75.60211522 167.04766045 -79.6470687 167.0449179 -83.69270806 167.02412177 C-85.15034212 167.02064093 -86.60802692 167.02547692 -88.06559451 167.03982621 C-101.31533803 167.16177971 -111.39318133 164.16903306 -121.03027344 154.87280273 C-132.74718859 141.69648534 -132.20320955 127.15617086 -131.22558594 110.40405273 C-127.87205027 78.28728138 -110.18548801 49.36677184 -86.22558594 28.40405273 C-73.99216248 18.48873173 -60.08039988 11.19819679 -45.22558594 6.09155273 C-44.23196045 5.745802 -44.23196045 5.745802 -43.21826172 5.39306641 C-28.90641503 0.76356314 -14.89665424 -0.03931174 0 0 Z M-35.41308594 24.96655273 C-36.227854 25.22339844 -37.04262207 25.48024414 -37.88208008 25.74487305 C-64.26516646 34.50253154 -86.98126502 53.72381667 -99.51367188 78.58398438 C-106.19048001 92.48339312 -110.36665489 106.87847267 -110.53808594 122.34155273 C-110.56708984 123.20973633 -110.59609375 124.07791992 -110.62597656 124.97241211 C-110.70032636 132.53893351 -108.84981538 136.72018171 -103.47558594 142.21655273 C-95.77485218 147.39973892 -87.05975694 146.69146916 -78.11268616 146.66474915 C-76.67676341 146.66777247 -75.24084226 146.67166285 -73.80492395 146.67634171 C-69.87259866 146.68660705 -65.94036469 146.68444364 -62.00803196 146.68016112 C-57.76187036 146.67769126 -53.5157306 146.68671125 -49.26957703 146.69419861 C-40.95639092 146.70694005 -32.64323713 146.70874002 -24.33004291 146.70639835 C-17.57258372 146.70461454 -10.81513433 146.70636617 -4.05767632 146.71062279 C-3.09553303 146.71121798 -2.13338974 146.71181317 -1.1420906 146.71242639 C0.81256155 146.71363815 2.76721369 146.71485229 4.72186584 146.71606877 C23.04727025 146.72694201 41.37265626 146.72478274 59.69806171 146.71868392 C76.45919932 146.71351401 93.22027883 146.72477255 109.98140495 146.74378214 C127.19744611 146.76315782 144.41345976 146.77141707 161.62951189 146.76765889 C171.29275555 146.76574656 180.95594974 146.76823763 190.61918449 146.78237343 C198.84484747 146.79428468 207.07043052 146.79569492 215.29609459 146.78358326 C219.49164418 146.77769301 223.68704756 146.7765992 227.88258743 146.78858566 C231.72616122 146.79943887 235.56946663 146.79634791 239.41302783 146.78232398 C240.80055729 146.77967552 242.18810774 146.78204831 243.57561659 146.79005984 C252.46883154 146.83782977 260.81598616 146.65224743 268.14941406 141.09155273 C272.78415783 136.34645792 274.15006325 132.10058977 274.24243164 125.62890625 C274.23236084 124.79157959 274.22229004 123.95425293 274.21191406 123.09155273 C274.20506592 122.21362061 274.19821777 121.33568848 274.19116211 120.43115234 C273.52287342 92.68090236 259.41074396 66.98797426 239.73535156 48.02905273 C208.57590741 20.40484895 171.73738854 20.07942062 132.26950455 20.13540173 C127.5090132 20.14053256 122.74852884 20.1357509 117.98803711 20.13262939 C109.99982295 20.12901009 102.01164599 20.13373496 94.0234375 20.14331055 C84.84163397 20.15419113 75.65991932 20.1506641 66.47811794 20.13965774 C58.53690815 20.13052639 50.59572481 20.12932793 42.65451145 20.13453507 C37.93692637 20.13762288 33.2193828 20.1381535 28.50180054 20.1314621 C-3.84248048 19.2419012 -3.84248048 19.2419012 -35.41308594 24.96655273 Z " fill="#000000" transform="translate(174.2255859375,302.595947265625)"/>
<path d="M0 0 C1.2065625 0.3403125 2.413125 0.680625 3.65625 1.03125 C35.33420904 10.71789863 59.1109042 32.70300493 74.6875 61.5625 C86.20189742 85.23545694 89.63212193 116.64165938 82 142 C81.6596875 143.2065625 81.319375 144.413125 80.96875 145.65625 C71.28210137 177.33420904 49.29699507 201.1109042 20.4375 216.6875 C-3.23545694 228.20189742 -34.64165938 231.63212193 -60 224 C-61.2065625 223.6596875 -62.413125 223.319375 -63.65625 222.96875 C-95.33420904 213.28210137 -119.1109042 191.29699507 -134.6875 162.4375 C-146.20189742 138.76454306 -149.63212193 107.35834062 -142 82 C-141.6596875 80.7934375 -141.319375 79.586875 -140.96875 78.34375 C-131.73010222 48.13087481 -111.22872971 24.75144118 -83.96484375 9.27734375 C-76.29053057 5.23877517 -68.30751472 2.41020489 -60 0 C-58.93265625 -0.32226562 -57.8653125 -0.64453125 -56.765625 -0.9765625 C-39.40657932 -5.33669839 -17.12921878 -5.15539594 0 0 Z M-98.1875 45.75 C-117.57314533 66.15809498 -124.59776152 90.67086312 -124.2734375 118.35546875 C-123.56557313 143.14824304 -111.34265136 164.82809204 -94 182 C-76.1098272 198.5405129 -51.24924023 207.85969993 -26.88964844 206.91845703 C-6.30288582 205.67670135 14.37940493 198.82613877 30 185 C30.81855469 184.31164062 31.63710938 183.62328125 32.48046875 182.9140625 C46.16709549 171.11167635 55.51957497 156.1678466 61 139 C61.3196875 138.00613281 61.639375 137.01226562 61.96875 135.98828125 C68.58644161 111.08002533 63.69007814 84.82087911 51.15625 62.75390625 C36.98071856 40.41582495 14.78535633 24.56006437 -11.0625 18.6875 C-12.70298212 18.42273001 -14.34996096 18.19661099 -16 18 C-17.09183594 17.86722656 -18.18367188 17.73445313 -19.30859375 17.59765625 C-49.14603393 14.78756929 -76.47331449 25.46609018 -98.1875 45.75 Z " fill="#000000" transform="translate(286,46)"/>
</svg>
